<svg width="8" height="8" viewBox="0 0 8 8" xmlns="http://www.w3.org/2000/svg">
  <g clip-path="url(#clip0_13_8)">
    <path fill-rule="evenodd" clip-rule="evenodd" d="M3.99996 1.33333C2.5272 1.33333 1.33329 2.52724 1.33329 4C1.33329 5.47276 2.5272 6.66666 3.99996 6.66666C5.47273 6.66666 6.66663 5.47276 6.66663 4C6.66663 2.52724 5.47273 1.33333 3.99996 1.33333ZM0.666626 4C0.666626 2.15905 2.15901 0.666664 3.99996 0.666664C5.84089 0.666664 7.33329 2.15905 7.33329 4C7.33329 5.84093 5.84089 7.33333 3.99996 7.33333C2.15901 7.33333 0.666626 5.84093 0.666626 4ZM3.94276 2.25245C4.12686 2.25245 4.27609 2.40169 4.27609 2.58578V4.2415L5.45173 4.68843C5.62383 4.75383 5.71029 4.94636 5.64486 5.11843C5.57946 5.29053 5.38693 5.377 5.21486 5.31156L3.82433 4.783C3.69496 4.7338 3.60943 4.6098 3.60943 4.4714V2.58578C3.60943 2.40169 3.75866 2.25245 3.94276 2.25245Z"/>
  </g>
  <defs>
    <clipPath id="clip0_13_8">
      <rect width="8" height="8"/>
    </clipPath>
  </defs>
</svg>
