<svg width="9" height="9" viewBox="0 0 9 9" xmlns="http://www.w3.org/2000/svg">
  <g clip-path="url(#clip0_16_221)">
    <path d="M4.64067 0.521155C2.35327 0.521155 0.492235 2.11387 0.492235 4.07165C0.504892 4.87687 0.81061 5.60869 1.30674 6.16697L1.30392 6.16359C1.13292 6.84366 0.785298 7.42669 0.312517 7.88034L0.311392 7.88147C0.249517 7.94475 0.211548 8.03165 0.211548 8.127C0.211548 8.32134 0.369048 8.47912 0.563673 8.47912C0.588704 8.47912 0.612892 8.47659 0.636517 8.47153L0.634267 8.47181C1.60683 8.30981 2.46914 7.929 3.19955 7.3814L3.18436 7.39237C3.61945 7.53778 4.12036 7.62187 4.64095 7.62215C6.92836 7.62215 8.78939 6.02915 8.78939 4.07137C8.78939 2.11359 6.92836 0.520874 4.64095 0.520874L4.64067 0.521155ZM4.64067 6.91931C4.63645 6.91931 4.63111 6.91931 4.62605 6.91931C4.12824 6.91931 3.65152 6.82903 3.21136 6.66394L3.2392 6.67294C3.22655 6.66984 3.21108 6.66731 3.19561 6.6659H3.1942C3.1703 6.65887 3.14302 6.65437 3.11461 6.65325H3.11405C3.09324 6.65465 3.07411 6.65775 3.05583 6.66253L3.05808 6.66197C3.02995 6.66562 3.00464 6.67181 2.98074 6.68109L2.98299 6.68025C2.96077 6.69122 2.94192 6.70303 2.9242 6.71653L2.92505 6.71597C2.90705 6.72525 2.89186 6.73481 2.87752 6.7455L2.87836 6.74494C2.49277 7.0785 2.03461 7.33978 1.53145 7.5015L1.50389 7.50909C1.75589 7.11787 1.94124 6.65831 2.03039 6.16528L2.03377 6.14222C2.03517 6.1335 2.03236 6.12534 2.0332 6.11634C2.03377 6.10847 2.03405 6.09947 2.03405 6.09019C2.03405 6.00272 2.00395 5.92228 1.95361 5.85844L1.95417 5.85928C1.94883 5.85281 1.94714 5.84494 1.94124 5.83875C1.48645 5.3865 1.20267 4.76269 1.19536 4.0725V4.07109C1.19536 2.50116 2.74083 1.22372 4.64067 1.22372C6.54052 1.22372 8.08599 2.50116 8.08599 4.07109C8.08599 5.64103 6.54024 6.91875 4.64067 6.91875V6.91931ZM7.0313 3.02344H2.5313C2.33724 3.02344 2.17974 3.18094 2.17974 3.375C2.17974 3.56906 2.33724 3.72656 2.5313 3.72656H7.0313C7.22536 3.72656 7.38286 3.56906 7.38286 3.375C7.38286 3.18094 7.22536 3.02344 7.0313 3.02344ZM4.50005 4.71094H2.5313C2.33724 4.71094 2.17974 4.86844 2.17974 5.0625C2.17974 5.25656 2.33724 5.41406 2.5313 5.41406H4.50005C4.69411 5.41406 4.85161 5.25656 4.85161 5.0625C4.85161 4.86844 4.69411 4.71094 4.50005 4.71094Z"/>
  </g>
  <defs>
    <clipPath id="clip0_16_221">
      <rect width="9" height="9"/>
    </clipPath>
  </defs>
</svg>
