<svg width="22" height="22" viewBox="0 0 22 22" xmlns="http://www.w3.org/2000/svg">
<path clip-rule="evenodd" d="M10.6188 2.83299C10.8609 2.72234 11.139 2.72234 11.3811 2.83299L20.5478 7.02346C20.874 7.17262 21.0833 7.49839 21.0833 7.85715C21.0833 8.21589 20.874 8.54168 20.5478 8.69083L18.3333 9.70319V15.0763C18.3333 15.2607 18.287 15.4625 18.1702 15.6501C17.8671 16.1372 15.7415 19.25 11 19.25C6.25845 19.25 4.13281 16.1372 3.82965 15.6501C3.71292 15.4625 3.66663 15.2607 3.66663 15.0763V9.70319L1.45218 8.69083C1.1259 8.54168 0.916626 8.21589 0.916626 7.85715C0.916626 7.49839 1.1259 7.17262 1.45218 7.02346L10.6188 2.83299ZM5.49996 10.5412V14.8495C5.94901 15.4723 7.6207 17.4167 11 17.4167C14.3793 17.4167 16.0509 15.4723 16.5 14.8495V10.5412L11.3811 12.8813C11.139 12.9919 10.8609 12.9919 10.6188 12.8813L5.49996 10.5412ZM4.0381 7.85715L4.96441 8.2806L11 11.0397L17.0355 8.2806L17.9619 7.85715L11 4.67458L4.0381 7.85715ZM21.5416 10.5417C21.5416 11.301 20.926 11.9167 20.1666 11.9167C19.4073 11.9167 18.7916 11.301 18.7916 10.5417C18.7916 9.7823 19.4073 9.16667 20.1666 9.16667C20.926 9.16667 21.5416 9.7823 21.5416 10.5417ZM21.0833 13.2917C21.0833 12.7854 20.6729 12.375 20.1666 12.375C19.6604 12.375 19.25 12.7854 19.25 13.2917V18.3333C19.25 18.8396 19.6604 19.25 20.1666 19.25C20.6729 19.25 21.0833 18.8396 21.0833 18.3333V13.2917Z"/>
</svg>
