<svg width="19" height="18" viewBox="0 0 19 18" fill="none" xmlns="http://www.w3.org/2000/svg">
<g clip-path="url(#clip0_6_68)">
<path fill-rule="evenodd" clip-rule="evenodd" d="M17.4337 13.7647L14.3632 16.722V13.7647H17.4337ZM12.1645 10.5882V11.6471H3.36969V10.5882H12.1645ZM15.4636 7.41176V8.47059H3.3697V7.41178H15.4636V7.41176ZM6.11806 0C7.02723 0 7.76709 0.712594 7.76709 1.58824C7.76709 1.83283 7.70443 2.06153 7.6022 2.26905L9.80527 4.38989L9.02693 5.13953L6.82494 3.01765C6.60947 3.11613 6.37201 3.17648 6.11805 3.17648C5.2089 3.17648 4.46904 2.46389 4.46904 1.58825C4.46905 0.712584 5.20892 0 6.11806 0ZM9.96579 2.11764V3.17648H17.6612V12.7059H13.2638V16.9412H1.171V3.17648H3.3697V2.11764H0.0716553V18H13.908C14.3478 18 14.7622 17.8348 15.0734 17.5352L18.278 14.4498C18.5891 14.1491 18.7606 13.7499 18.7606 13.3264V2.11764H9.96578H9.96579Z" fill="white"/>
</g>
<defs>
<clipPath id="clip0_6_68">
<rect width="18.6889" height="18" fill="white" transform="translate(0.0716553)"/>
</clipPath>
</defs>
</svg>
