<svg width="21" height="20" viewBox="0 0 21 20" fill="none" xmlns="http://www.w3.org/2000/svg">
<g clip-path="url(#clip0_6_65)">
<path d="M8.43105 10.4175C9.64972 10.4175 10.7535 9.94499 11.5563 9.18L11.5556 9.18062C12.1987 9.77437 13.0734 10.1406 14.0371 10.1406C16.0182 10.1406 17.6243 8.59374 17.6243 6.68562C17.6243 4.77749 16.0182 3.23062 14.0371 3.23062C13.3382 3.23062 12.686 3.42312 12.1344 3.75625L12.1494 3.74812C11.3389 2.58125 9.97548 1.82312 8.42845 1.82312C5.96385 1.82312 3.96648 3.7475 3.96648 6.12062C3.96648 8.49375 5.9645 10.4181 8.42845 10.4181C8.4291 10.4181 8.42975 10.4181 8.43105 10.4181V10.4175ZM14.0254 4.7925C14.0312 4.7925 14.0384 4.7925 14.0449 4.7925C15.1337 4.7925 16.0163 5.6425 16.0163 6.69125C16.0163 7.74 15.1337 8.59 14.0449 8.59C13.42 8.59 12.8625 8.31 12.5017 7.87312L12.4985 7.86937C12.749 7.35625 12.895 6.75437 12.895 6.12C12.895 5.80125 12.858 5.49062 12.7879 5.19187L12.7937 5.22C13.126 4.95562 13.5562 4.795 14.0254 4.7925ZM8.43105 3.38062C10.0001 3.38062 11.2727 4.60625 11.2727 6.1175C11.2727 7.62875 10.0001 8.85437 8.43105 8.85437C6.86196 8.85437 5.58943 7.62875 5.58943 6.1175C5.58943 6.1175 5.58943 6.1175 5.58943 6.11687C5.59137 4.60625 6.86261 3.38187 8.4317 3.38L8.43105 3.38062ZM20.255 15.5556C19.6171 12.7775 17.0812 10.73 14.0494 10.73C12.9164 10.73 11.8535 11.0156 10.9326 11.5162L10.9644 11.5006C10.2097 11.245 9.33954 11.095 8.43429 11.09H8.4317C4.56997 11.1062 1.34289 13.7025 0.511623 17.1806L0.501241 17.2337C0.48956 17.2837 0.482422 17.3419 0.482422 17.4012C0.482422 17.8331 0.845818 18.1831 1.29422 18.1831C1.68098 18.1831 2.00414 17.9225 2.0859 17.5737L2.0872 17.5687C2.7491 14.7369 5.33829 12.6531 8.433 12.6531C11.5277 12.6531 14.1169 14.7369 14.7704 17.5269L14.7788 17.5687C14.8612 17.9225 15.1844 18.1825 15.5711 18.1825C16.0189 18.1825 16.3823 17.8331 16.3823 17.4012C16.3823 17.3419 16.3751 17.2844 16.3622 17.2287L16.3635 17.2337C15.8794 15.2137 14.6328 13.5319 12.9378 12.4487L12.908 12.4306C13.2545 12.3425 13.6523 12.2925 14.0624 12.2925C16.3193 12.2925 18.2051 13.82 18.6671 15.86L18.673 15.89C18.7554 16.2431 19.0779 16.5037 19.464 16.5037C19.5263 16.5037 19.5866 16.4969 19.6444 16.4844L19.6392 16.4856C20.0065 16.4069 20.2764 16.0956 20.2764 15.7237C20.2764 15.6644 20.2693 15.6062 20.2563 15.5506L20.2576 15.5556H20.255Z" fill="white"/>
</g>
<defs>
<clipPath id="clip0_6_65">
<rect width="20.7655" height="20" fill="white" transform="translate(-0.00488281)"/>
</clipPath>
</defs>
</svg>
